<?xml version="1.0" encoding="UTF-8"?>
<!DOCTYPE svg PUBLIC "-//W3C//DTD SVG 1.1//EN" "http://www.w3.org/Graphics/SVG/1.1/DTD/svg11.dtd">
<!-- Creator: CorelDRAW -->
<svg xmlns="http://www.w3.org/2000/svg" xml:space="preserve" width="312.936mm" height="148.65mm" version="1.1" style="shape-rendering:geometricPrecision; text-rendering:geometricPrecision; image-rendering:optimizeQuality; fill-rule:evenodd; clip-rule:evenodd"
viewBox="0 0 31293.64 14865.04"
 xmlns:xlink="http://www.w3.org/1999/xlink"
 xmlns:xodm="http://www.corel.com/coreldraw/odm/2003">
 <defs>
  <style type="text/css">
   <![CDATA[
    .fil0 {fill:#01B0EF}
    .fil2 {fill:#6454FF}
    .fil1 {fill:#6B31D1}
    .fil3 {fill:#373435;fill-rule:nonzero}
   ]]>
  </style>
 </defs>
 <g id="Layer_x0020_1">
  <metadata id="CorelCorpID_0Corel-Layer"/>
  <rect class="fil0" x="4098.29" y="4103.34" width="6769.16" height="4911.38" rx="631.41" ry="668.85"/>
  <polygon class="fil1" points="9702.76,4103.35 5925.61,9014.73 6912.96,9014.73 "/>
  <path class="fil2" d="M9702.76 4103.35l-5028.92 6539.05c-85.31,110.92 -225.38,153.29 -357.85,108.23 -132.49,-45.04 -217.7,-164.03 -217.7,-303.95l0 -2100.8 0 -3573.68c0,-8.2 0.15,-16.37 0.44,-24.49 13.02,-356.65 308.74,-644.36 668.41,-644.36l4935.62 0z"/>
  <path class="fil3" d="M13416.28 8213.15l0 -2686.14 256.88 0 58.71 411 -91.74 -66.06c75.84,-117.42 169.41,-210.39 280.72,-278.89 111.31,-68.5 247.7,-102.74 409.16,-102.74 163.91,0 304.58,41.58 422.01,124.76 117.42,83.18 207.33,195.1 269.71,336.38 62.38,141.28 93.58,299.68 93.58,474.6 0,174.92 -29.36,332.71 -88.08,473.99 -58.71,141.28 -146.17,253.81 -262.37,336.99 -116.2,83.18 -261.15,124.77 -434.85,124.77 -143.11,0 -272.16,-29.97 -387.75,-89.3 -115.59,-59.32 -199.38,-148 -250.76,-266.65l55.05 -66.06 0 1273.35 -330.27 0zm851.35 -1144.91c160.24,0 285.62,-56.88 375.52,-170.03 89.91,-113.14 134.55,-270.32 134.55,-472.15 0,-201.83 -44.64,-359.62 -134.55,-472.77 -89.9,-113.14 -215.28,-169.41 -375.52,-169.41 -99.08,0 -188.98,23.24 -270.33,70.34 -81.34,47.09 -146.78,118.03 -195.71,212.83 -48.93,94.8 -73.39,214.67 -73.39,359.01 0,150.45 24.46,272.77 73.39,366.96 48.93,94.19 114.37,163.3 195.71,207.94 81.35,44.65 171.25,67.28 270.33,67.28z"/>
  <path id="_1" class="fil3" d="M15688.68 7361.81c-111.31,0 -208.56,-22.63 -291.73,-67.89 -83.18,-45.26 -147.4,-107.03 -193.27,-185.32 -45.87,-78.28 -69.11,-167.57 -69.11,-267.88 0,-101.52 22.63,-188.98 67.28,-261.76 44.64,-72.78 104.58,-133.33 179.81,-181.64 75.22,-48.32 159.01,-86.85 251.97,-115.6 92.97,-28.74 189.6,-49.54 289.29,-62.38 99.69,-12.84 195.1,-19.57 286.84,-20.79 0,-171.25 -33.64,-283.17 -100.91,-335.77 -67.28,-52.6 -164.52,-78.9 -291.74,-78.9 -67.27,0 -138.83,10.4 -215.28,31.19 -76.45,20.8 -162.68,64.22 -258.09,130.27l-47.71 -267.88c72.17,-55.04 162.08,-100.3 269.72,-135.16 107.64,-34.86 220.78,-51.98 339.43,-51.98 151.68,0 274,26.29 366.96,79.5 92.97,53.21 160.85,143.12 203.67,269.11 42.81,125.99 64.21,297.23 64.21,513.74l0 366.96c0,85.62 4.28,155.96 12.24,211.61 7.95,55.66 26.29,97.24 55.04,124.77 28.74,27.52 74.61,41.59 138.22,41.59l33.03 0 -51.38 264.21 -25.68 0c-106.42,0 -188.38,-10.4 -246.48,-31.2 -58.1,-20.79 -102.75,-50.76 -133.33,-89.9 -30.58,-39.14 -58.1,-86.85 -82.56,-143.11 -67.28,78.28 -146.79,141.89 -238.53,190.81 -91.74,48.93 -195.71,73.4 -311.91,73.4zm62.38 -264.21c88.07,0 173.7,-22.02 256.26,-66.06 82.57,-44.03 149.84,-102.75 202.44,-176.14l0 -429.34c-174.92,6.12 -316.2,23.24 -424.45,51.37 -108.25,28.14 -187.76,70.34 -237.91,126.61 -50.15,56.26 -75.23,129.04 -75.23,218.34 0,96.63 26.3,166.35 78.29,209.77 51.98,43.43 118.65,65.45 200.6,65.45z"/>
  <path id="_2" class="fil3" d="M16841.84 7325.11l0 -1798.1 256.88 0 66.05 344.94 -128.44 -55.04c121.1,-134.55 239.75,-222.62 355.34,-264.21 115.59,-41.59 228.13,-62.38 338.22,-62.38 262.98,0 451.36,75.83 564.5,227.51 113.15,151.68 169.41,357.17 169.41,616.49l0 990.79 -330.26 0 0 -990.79c0,-190.82 -35.47,-330.26 -106.42,-418.33 -70.94,-88.07 -192.04,-132.11 -363.29,-132.11 -121.09,0 -231.79,26.3 -332.71,79.51 -100.91,53.21 -167.57,138.22 -199.38,254.42l40.37 -201.82 0 1409.12 -330.27 0z"/>
  <path id="_3" class="fil3" d="M19429.82 8242.51c-163.9,0 -310.08,-20.19 -439.12,-60.55 -129.05,-40.37 -230.58,-100.3 -304.58,-179.81 -74,-79.51 -111.31,-177.98 -111.31,-295.4 0,-97.86 28.13,-182.26 83.79,-252.59 55.65,-70.34 131.49,-126.6 228.12,-169.42 -57.49,-28.13 -100.91,-61.77 -130.88,-100.3 -29.97,-38.53 -45.26,-80.73 -45.26,-127.21 0,-55.04 17.13,-105.19 50.77,-149.84 33.63,-44.65 87.46,-81.34 162.07,-110.7 -100.3,-62.38 -177.36,-146.78 -231.18,-252.59 -53.82,-105.81 -80.73,-223.23 -80.73,-352.89 0,-130.89 29.35,-249.54 88.07,-355.34 58.71,-105.81 143.72,-189.6 254.42,-251.98 110.7,-62.38 243.42,-93.57 398.76,-93.57 83.18,0 162.08,12.23 236.08,36.69 74,24.46 141.89,58.71 204.27,102.75 55.05,-31.8 120.49,-58.1 195.71,-78.9 75.23,-20.79 159.02,-31.19 251.98,-31.19 6.12,0 11.62,0 15.9,0 4.29,0 8.57,0 13.46,0l-40.37 220.18c-14.67,0 -28.74,0 -42.2,0 -13.45,0 -27.52,0 -42.2,0 -12.23,0 -40.36,1.83 -84.4,5.5 -44.03,3.67 -84.4,10.4 -121.09,20.18 50.15,58.72 89.29,124.16 116.81,196.94 27.52,72.78 40.98,149.23 40.98,228.74 0,136.99 -29.36,259.31 -88.68,367.57 -59.33,108.25 -144.95,193.87 -256.26,256.87 -111.31,62.99 -244.64,94.8 -399.99,94.8 -44.03,0 -86.23,-3.06 -126.6,-8.57 -40.36,-5.5 -78.89,-13.45 -115.59,-24.46 -56.27,18.35 -84.4,50.15 -84.4,95.41 0,26.91 15.9,50.15 47.7,70.33 31.81,20.19 83.18,36.09 154.13,47.1l480.71 77.06c194.49,30.58 344.94,86.84 450.75,168.8 105.81,81.95 158.4,198.16 158.4,348.61 0,124.77 -36.08,228.13 -108.86,310.69 -72.78,82.57 -176.14,144.34 -309.47,185.32 -133.33,40.97 -289.9,61.77 -469.71,61.77zm29.36 -293.57c168.8,0 298.46,-22.02 388.98,-65.44 90.51,-43.42 135.77,-107.03 135.77,-191.43 0,-66.05 -28.13,-118.04 -85.01,-155.96 -56.88,-37.92 -138.83,-66.66 -245.25,-86.23l-511.91 -86.24c-67.27,29.36 -125.99,68.5 -176.14,118.04 -50.15,49.54 -75.23,107.64 -75.23,173.69 0,102.75 51.99,177.37 155.35,223.85 103.36,46.48 240.97,69.72 413.44,69.72zm-106.42 -1302.7c139.45,0 245.86,-42.2 319.26,-125.99 73.39,-83.79 110.08,-192.05 110.08,-325.37 0,-128.44 -36.69,-234.25 -110.08,-316.81 -73.4,-82.57 -179.81,-123.54 -319.26,-123.54 -139.44,0 -245.25,40.97 -317.42,123.54 -72.17,82.56 -108.25,188.37 -108.25,316.81 0,133.32 36.08,241.58 108.25,325.37 72.17,83.79 177.98,125.99 317.42,125.99z"/>
  <path id="_4" class="fil3" d="M21126.1 7361.81c-188.38,0 -348.61,-42.2 -481.33,-125.99 -132.72,-83.79 -234.24,-196.33 -304.58,-337.61 -70.33,-141.27 -105.8,-298.46 -105.8,-472.15 0,-173.69 35.47,-331.49 105.8,-472.77 70.34,-141.27 171.86,-253.81 304.58,-337.6 132.72,-83.79 292.95,-125.37 481.33,-125.37 187.15,0 347.39,41.58 480.71,125.37 133.33,83.79 235.47,196.33 305.8,337.6 70.34,141.28 105.2,299.08 105.2,472.77 0,173.69 -34.86,330.88 -105.2,472.15 -70.33,141.28 -172.47,253.82 -305.8,337.61 -133.32,83.79 -293.56,125.99 -480.71,125.99zm0 -293.57c178.58,0 315.58,-56.88 410.99,-170.03 95.41,-113.14 143.12,-270.32 143.12,-472.15 0,-201.83 -47.71,-359.62 -143.12,-472.77 -95.41,-113.14 -232.41,-169.41 -410.99,-169.41 -177.37,0 -313.75,56.27 -409.77,169.41 -96.02,113.15 -144.34,270.94 -144.34,472.77 0,201.83 48.32,359.01 144.34,472.15 96.02,113.15 232.4,170.03 409.77,170.03z"/>
  <path id="_5" class="fil3" d="M22756.31 7361.81c-114.98,0 -208.56,-23.86 -280.72,-70.95 -72.17,-47.09 -125.38,-107.03 -159.63,-180.42 -34.25,-73.39 -51.38,-149.84 -51.38,-229.35l0 -1016.48 -260.54 0 40.37 -374.29 220.17 0 0 -403.66 455.03 -47.7 0 451.36 403.66 0 0 374.29 -403.66 0 0 829.33c0,92.96 5.51,159.63 16.52,200.6 11.01,40.98 36.08,66.67 75.22,77.07 39.15,10.39 101.53,15.9 187.15,15.9l124.77 0 -40.37 374.3 -326.59 0z"/>
  <path id="_6" class="fil3" d="M23626.92 7361.81c-97.85,0 -187.15,-22.02 -267.88,-65.45 -80.73,-43.42 -144.95,-105.8 -192.65,-187.76 -47.71,-81.95 -71.56,-181.03 -71.56,-297.23 0,-103.97 24.47,-193.27 72.78,-267.27 48.32,-74 111.92,-135.78 190.82,-185.32 78.9,-49.53 164.52,-88.68 256.87,-117.42 92.35,-28.75 183.48,-49.54 273.39,-63 89.9,-13.45 168.8,-21.4 237.3,-23.85 -4.9,-105.19 -31.81,-181.64 -80.73,-229.35 -48.93,-47.7 -132.11,-71.56 -249.54,-71.56 -81.95,0 -161.46,11.01 -239.13,33.64 -77.67,22.63 -165.75,58.1 -263.6,105.81l-40.37 -370.63c110.09,-53.82 220.79,-94.19 331.49,-121.1 110.7,-26.91 222.62,-40.36 336.38,-40.36 137,0 255.04,24.46 354.11,73.39 99.08,48.93 175.53,127.21 229.35,235.47 53.82,108.25 80.73,251.36 80.73,428.73l0 495.39c0,91.74 4.29,157.79 12.85,198.77 8.56,40.98 24.46,67.28 47.7,78.28 23.24,11.01 56.88,16.52 100.92,16.52l58.71 0 -40.37 374.3 -165.13 0c-68.5,0 -129.04,-9.18 -182.25,-26.91 -53.21,-17.74 -99.08,-42.2 -137,-74.01 -37.92,-31.8 -68.5,-69.11 -91.74,-111.92 -59.94,67.28 -140.67,119.26 -242.81,156.57 -102.13,37.31 -208.55,56.27 -318.64,56.27zm190.82 -348.62c40.37,0 90.52,-11 150.45,-32.41 59.94,-21.41 113.76,-54.43 161.47,-99.69l0 -418.33c-85.63,3.67 -171.25,17.73 -256.88,42.2 -85.62,24.46 -157.18,60.54 -214.67,108.25 -57.49,47.7 -86.23,107.64 -86.23,179.81 0,74.61 19.57,129.66 58.71,165.74 39.14,36.09 101.53,54.43 187.15,54.43z"/>
  <path id="_7" class="fil3" d="M25337.87 7361.81c-108.86,0 -197.54,-22.02 -266.65,-65.45 -69.11,-43.42 -120.49,-101.52 -153.51,-174.3 -33.03,-72.78 -49.54,-152.9 -49.54,-240.97l0 -2308.17 455.03 0 0 2121.02c0,97.86 6.11,166.97 17.73,207.94 11.62,40.98 33.03,65.44 64.83,73.4 31.8,7.95 77.67,12.23 137.61,12.23l-40.36 374.3 -165.14 0z"/>
  <polygon id="_8" class="fil3" points="25639.7,7325.11 25639.7,4572.92 26094.73,4572.92 26094.73,6242.58 26663.51,5490.32 27177.25,5490.32 26509.39,6371.02 27191.93,7325.11 26678.19,7325.11 26094.73,6510.46 26094.73,7325.11 "/>
 </g>
</svg>
