<?xml version="1.0" standalone="no"?>
<!DOCTYPE svg PUBLIC "-//W3C//DTD SVG 20010904//EN"
 "http://www.w3.org/TR/2001/REC-SVG-20010904/DTD/svg10.dtd">
<svg version="1.0" xmlns="http://www.w3.org/2000/svg"
 width="3017.000000pt" height="913.000000pt" viewBox="0 0 3017.000000 913.000000"
 preserveAspectRatio="xMidYMid meet">
<metadata>
Created by potrace 1.16, written by Peter Selinger 2001-2019
</metadata>
<g transform="translate(0.000000,913.000000) scale(0.100000,-0.100000)"
fill="#000000" stroke="none">
<path d="M2039 8205 c-104 -21 -275 -96 -287 -127 -2 -4 -8 -6 -13 -3 -14 9
-181 -165 -217 -227 -19 -31 -47 -89 -63 -129 -63 -155 -59 88 -57 -3654 l3
-3410 23 -58 c13 -31 30 -63 37 -71 8 -7 11 -17 7 -21 -4 -5 1 -5 11 -2 11 4
16 3 12 -3 -9 -14 62 -77 120 -105 108 -54 230 -53 335 0 50 26 100 70 100 87
0 6 3 8 6 5 4 -4 23 15 42 41 20 26 41 50 46 54 6 4 8 8 4 8 -5 0 0 8 10 18 9
11 41 50 69 88 29 38 88 114 130 170 43 55 89 116 103 134 14 18 57 74 95 124
39 49 101 130 139 180 38 50 82 106 97 125 15 19 25 39 22 45 -3 6 -3 8 2 4 7
-7 73 75 325 406 58 75 142 185 188 244 46 59 114 149 153 200 l70 92 588 0
c459 0 591 3 599 13 5 6 23 37 39 67 63 116 97 176 115 202 10 14 18 28 18 31
0 2 24 47 54 98 104 182 133 234 158 279 38 70 115 204 188 330 37 63 83 144
102 180 20 36 49 89 67 118 17 29 31 57 31 62 0 6 4 10 8 10 5 0 22 28 38 62
16 34 43 84 59 109 17 26 45 74 62 106 18 32 89 157 158 277 69 121 125 223
125 228 0 4 4 8 9 8 5 0 12 12 16 27 3 15 10 30 14 33 11 8 311 537 311 549 0
6 5 11 10 11 6 0 10 5 10 10 0 6 11 28 25 50 14 22 46 80 72 128 26 48 49 89
52 92 7 6 17 24 62 108 17 31 35 62 39 67 4 6 23 39 42 75 59 109 90 163 125
218 18 29 33 55 33 57 0 5 43 82 180 320 35 61 130 229 212 375 82 146 159
281 171 300 29 47 65 109 80 140 6 14 14 27 17 30 3 3 10 14 16 25 12 21 65
118 97 175 10 19 22 40 25 45 4 6 7 12 7 15 0 3 13 24 28 48 30 46 44 71 103
179 21 37 68 121 106 187 37 65 68 121 68 123 0 3 17 33 38 67 21 34 44 76 51
94 8 17 18 32 23 32 5 0 6 5 3 10 -3 6 -1 10 4 10 6 0 11 5 11 10 0 7 -992 10
-2957 9 -2403 -1 -2970 -3 -3024 -14z"/>
<path d="M25934 7657 c-2 -7 -3 -649 -2 -1427 l3 -1415 24 -70 c34 -103 64
-155 121 -219 62 -67 164 -121 260 -136 65 -10 340 -14 340 -5 0 13 41 374 46
403 l5 32 -76 0 c-119 0 -150 25 -174 138 -8 38 -11 438 -11 1382 l0 1330
-265 0 c-207 0 -267 -3 -271 -13z"/>
<path d="M26850 6045 l0 -1625 260 0 260 0 1 453 c1 248 1 462 1 475 -1 12 2
22 6 21 4 0 94 -122 201 -272 107 -150 260 -363 340 -474 l146 -203 303 0 304
0 -35 48 c-18 26 -155 216 -302 422 -148 206 -308 429 -355 495 -125 172 -118
155 -84 203 25 34 136 180 305 402 237 310 439 581 439 590 0 7 -95 9 -297 8
l-297 -3 -174 -230 c-95 -126 -245 -326 -333 -442 -88 -117 -162 -213 -164
-213 -3 0 -4 3 -4 8 1 4 1 447 0 985 l-1 977 -260 0 -260 0 0 -1625z"/>
<path d="M23078 7082 l-218 -25 0 -234 0 -233 -124 0 c-75 0 -127 -4 -131 -10
-4 -6 -15 -90 -26 -188 -10 -97 -22 -194 -25 -214 l-6 -38 156 0 156 0 0 -631
c0 -694 1 -708 63 -839 36 -78 145 -191 224 -233 88 -47 162 -57 429 -57 l241
0 6 43 c3 23 13 115 23 205 10 89 21 162 24 161 3 0 22 -36 43 -80 103 -215
262 -315 517 -326 266 -12 534 77 669 221 l24 26 33 -48 c17 -26 56 -67 86
-90 110 -84 213 -112 423 -112 l141 0 22 203 c13 111 22 209 22 218 0 14 -14
18 -84 20 -66 3 -91 8 -113 25 -53 39 -54 56 -63 619 -9 596 -10 606 -99 782
-71 142 -144 218 -264 276 -51 25 -122 53 -157 62 -174 46 -483 30 -715 -36
-147 -42 -325 -115 -325 -133 -1 -23 32 -402 36 -413 2 -9 27 -2 81 23 186 86
349 126 518 127 189 1 282 -43 343 -163 29 -59 57 -182 44 -195 -3 -3 -31 -5
-62 -5 -60 0 -274 -30 -388 -55 -228 -50 -437 -147 -567 -266 -62 -58 -136
-169 -167 -255 -18 -48 -22 -82 -22 -184 -1 -69 3 -145 8 -169 l8 -43 -173 3
c-189 5 -219 13 -260 69 -34 46 -39 141 -39 703 l0 547 240 0 240 0 -2 223 -3
222 -238 0 -237 0 0 263 0 262 -47 -1 c-27 -1 -146 -13 -265 -27z m1980 -1898
l2 -250 -42 -31 c-170 -121 -429 -151 -543 -61 -75 59 -99 215 -49 316 48 97
160 175 324 226 78 24 255 56 290 52 13 -1 15 -38 18 -252z"/>
<path d="M13400 6579 c-228 -18 -413 -105 -576 -268 l-70 -71 -18 123 c-10 67
-20 134 -23 150 l-6 28 -151 -3 -151 -3 -3 -1582 -2 -1583 195 0 195 0 0 657
0 657 64 -70 c148 -162 383 -244 666 -231 260 11 426 74 568 215 140 138 214
270 266 472 76 296 71 589 -15 855 -116 363 -413 626 -733 651 -39 3 -82 6
-96 8 -14 1 -63 -1 -110 -5z m127 -353 c257 -45 427 -247 474 -565 21 -150 3
-403 -39 -538 -20 -63 -72 -159 -114 -210 -120 -144 -261 -201 -475 -191 -204
10 -358 90 -456 236 -83 125 -117 213 -136 355 -61 450 133 826 464 901 130
29 174 31 282 12z"/>
<path d="M15250 6578 c-102 -7 -246 -40 -354 -80 -84 -30 -216 -96 -253 -126
l-21 -17 29 -149 c16 -82 30 -151 32 -152 1 -1 27 13 57 32 181 116 398 168
596 145 161 -19 259 -73 309 -170 29 -58 55 -180 55 -259 l0 -59 -82 -2 c-224
-5 -573 -74 -732 -145 -65 -29 -208 -122 -268 -175 -135 -120 -204 -318 -178
-513 33 -240 199 -433 435 -504 86 -26 321 -26 425 0 138 34 243 96 378 221
34 32 64 56 66 54 1 -2 24 -43 49 -90 48 -88 77 -118 155 -158 55 -28 184 -51
284 -51 72 0 78 2 83 23 19 84 52 273 48 280 -2 4 -28 7 -56 7 -78 0 -136 32
-166 93 -39 79 -48 183 -50 567 -2 392 -11 542 -41 692 -47 228 -146 380 -298
457 -124 63 -319 94 -502 79z m450 -1357 l0 -258 -41 -47 c-81 -92 -253 -193
-368 -217 -32 -6 -99 -9 -156 -7 -109 5 -154 21 -218 78 -92 80 -114 286 -46
422 45 88 152 173 264 207 82 25 283 59 420 70 61 4 118 9 128 10 16 1 17 -17
17 -258z"/>
<path d="M17411 6578 c-208 -17 -400 -96 -583 -238 l-27 -21 -6 23 c-3 13 -13
61 -23 108 l-17 85 -153 3 -152 3 0 -1061 0 -1060 195 0 195 0 0 771 c0 762 0
772 21 805 31 51 101 108 187 152 200 104 485 119 665 34 122 -57 207 -180
243 -352 16 -75 18 -161 22 -747 l3 -663 195 0 194 0 0 578 c-1 595 -8 778
-36 917 -48 238 -163 433 -313 534 -151 102 -373 149 -610 129z"/>
<path d="M19210 6565 c-257 -52 -501 -237 -592 -450 -51 -121 -63 -188 -63
-360 0 -171 13 -247 62 -369 46 -111 146 -241 242 -311 22 -16 41 -32 41 -35
0 -3 -24 -18 -54 -32 -77 -38 -121 -80 -156 -150 -34 -70 -40 -145 -15 -204
22 -53 91 -131 142 -161 51 -30 54 -25 -48 -83 -130 -74 -230 -205 -259 -341
-29 -130 10 -309 88 -413 102 -135 318 -245 573 -292 119 -23 541 -26 664 -6
394 65 633 230 701 487 8 28 14 96 14 151 0 195 -64 324 -210 424 -166 113
-302 153 -787 230 -353 56 -391 64 -449 90 -48 21 -66 47 -66 96 0 42 23 79
60 98 24 12 38 11 117 -5 235 -49 528 -1 704 113 252 165 384 432 368 750 -8
163 -50 287 -139 406 -22 30 -38 55 -36 57 9 9 136 26 234 32 l110 6 19 124
c10 68 16 125 14 128 -3 2 -57 0 -120 -5 -126 -10 -278 -49 -372 -95 l-58 -29
-37 23 c-77 46 -188 93 -280 116 -77 21 -117 25 -221 24 -69 0 -155 -7 -191
-14z m377 -319 c212 -57 335 -237 335 -496 0 -114 -20 -198 -69 -293 -87 -165
-220 -237 -438 -237 -165 0 -261 36 -357 136 -95 97 -139 222 -139 389 0 157
30 257 104 354 71 93 179 147 327 165 55 6 180 -3 237 -18z m-47 -1940 c355
-59 423 -77 511 -137 77 -52 112 -111 112 -188 0 -135 -107 -228 -318 -277
-116 -27 -484 -27 -600 0 -147 34 -263 89 -318 151 -65 73 -78 199 -30 293 49
96 228 228 293 216 14 -3 171 -29 350 -58z"/>
<path d="M21259 6560 c-235 -50 -426 -171 -571 -362 -104 -137 -161 -265 -197
-445 -62 -311 -14 -664 121 -886 136 -223 349 -388 579 -446 497 -127 982 45
1210 430 103 174 153 384 152 639 -1 352 -116 644 -329 832 -152 136 -274 197
-473 238 -125 27 -367 26 -492 0z m444 -346 c158 -41 304 -156 370 -294 51
-107 77 -221 84 -376 20 -429 -116 -687 -417 -795 -58 -21 -83 -23 -225 -24
-130 0 -170 3 -215 18 -187 63 -306 176 -380 360 -77 194 -80 527 -6 731 80
223 252 363 486 397 76 11 228 3 303 -17z"/>
</g>
</svg>
