<?xml version="1.0" encoding="UTF-8"?>
<svg xmlns="http://www.w3.org/2000/svg" xmlns:xlink="http://www.w3.org/1999/xlink" viewBox="0 0 100 100" width="100px" height="100px">
<g id="surface222909">
<path style=" stroke:none;fill-rule:nonzero;fill:rgb(92.54902%,94.117647%,94.509804%);fill-opacity:1;" d="M 50 15 C 30.679688 15 15 30.679688 15 50 C 15 56.132812 16.605469 61.882812 19.378906 66.894531 L 15.074219 82.464844 C 14.671875 83.914062 16.085938 85.328125 17.535156 84.925781 L 33.105469 80.617188 C 38.117188 83.390625 43.871094 85 50 85 C 69.320312 85 85 69.320312 85 50 C 85 30.679688 69.320312 15 50 15 Z M 50 17 C 68.238281 17 83 31.761719 83 50 C 83 68.238281 68.238281 83 50 83 C 44.066406 83 38.507812 81.425781 33.695312 78.683594 C 33.464844 78.554688 33.191406 78.519531 32.933594 78.589844 L 17 82.996094 L 21.410156 67.066406 C 21.480469 66.808594 21.445312 66.535156 21.3125 66.304688 C 18.570312 61.492188 17 55.933594 17 50 C 17 31.761719 31.761719 17 50 17 Z M 50 22 C 34.542969 22 22 34.542969 22 50 C 22 55.882812 23.835938 61.332031 26.933594 65.835938 L 24.410156 74.976562 C 24.359375 75.148438 24.410156 75.335938 24.535156 75.464844 C 24.664062 75.589844 24.851562 75.640625 25.023438 75.589844 L 34.164062 73.0625 C 38.671875 76.164062 44.117188 78 50 78 C 65.457031 78 78 65.457031 78 50 C 78 42.300781 74.890625 35.320312 69.855469 30.257812 C 69.660156 30.0625 69.34375 30.0625 69.148438 30.257812 C 68.949219 30.453125 68.949219 30.769531 69.144531 30.964844 C 74 35.847656 77 42.570312 77 50 C 77 64.917969 64.917969 77 50 77 C 44.238281 77 38.90625 75.191406 34.519531 72.117188 C 34.398438 72.03125 34.246094 72.003906 34.101562 72.042969 L 25.605469 74.394531 L 27.957031 65.898438 C 27.996094 65.757812 27.96875 65.601562 27.882812 65.480469 C 24.808594 61.097656 23 55.761719 23 50 C 23 35.082031 35.082031 23 50 23 C 52.554688 23 55.019531 23.363281 57.363281 24.023438 C 57.628906 24.101562 57.90625 23.945312 57.980469 23.679688 C 58.058594 23.414062 57.902344 23.136719 57.636719 23.0625 C 55.210938 22.375 52.648438 22 50 22 Z M 60.496094 24.078125 C 60.257812 24.078125 60.050781 24.25 60.007812 24.484375 C 59.960938 24.71875 60.085938 24.949219 60.308594 25.042969 C 61.324219 25.460938 62.304688 25.941406 63.253906 26.480469 C 63.410156 26.578125 63.609375 26.582031 63.769531 26.492188 C 63.929688 26.402344 64.027344 26.226562 64.023438 26.042969 C 64.015625 25.859375 63.910156 25.691406 63.746094 25.609375 C 62.761719 25.054688 61.746094 24.554688 60.691406 24.117188 C 60.628906 24.089844 60.5625 24.078125 60.496094 24.078125 Z M 65.503906 26.78125 C 65.28125 26.777344 65.082031 26.921875 65.019531 27.132812 C 64.953125 27.34375 65.035156 27.574219 65.21875 27.695312 C 65.894531 28.160156 66.550781 28.652344 67.183594 29.171875 C 67.394531 29.347656 67.710938 29.316406 67.886719 29.105469 C 68.0625 28.890625 68.03125 28.578125 67.820312 28.398438 C 67.164062 27.859375 66.480469 27.351562 65.78125 26.871094 C 65.699219 26.816406 65.601562 26.78125 65.503906 26.78125 Z M 38.507812 34.007812 C 37.84375 34.007812 36.824219 34.261719 35.980469 35.199219 C 35.269531 35.972656 32.996094 38.171875 32.996094 42.398438 C 32.996094 46.679688 36.023438 50.664062 36.414062 51.195312 L 36.414062 51.199219 L 36.417969 51.203125 C 36.429688 51.21875 36.574219 51.4375 36.773438 51.734375 C 36.976562 52.03125 37.25 52.425781 37.589844 52.898438 C 38.273438 53.839844 39.230469 55.082031 40.441406 56.410156 C 42.855469 59.066406 46.269531 62.085938 50.5 63.777344 C 53.949219 65.15625 56.050781 65.71875 57.503906 65.917969 C 58.957031 66.113281 59.773438 65.933594 60.472656 65.871094 C 61.386719 65.785156 62.59375 65.257812 63.746094 64.503906 C 64.898438 63.746094 65.972656 62.78125 66.378906 61.625 C 66.730469 60.625 66.910156 59.695312 66.972656 58.957031 C 67.003906 58.589844 67.007812 58.269531 66.988281 58 C 66.964844 57.730469 66.953125 57.535156 66.816406 57.300781 C 66.636719 56.996094 66.371094 56.820312 66.078125 56.660156 C 65.789062 56.5 65.449219 56.34375 65.054688 56.144531 L 65.050781 56.144531 C 64.636719 55.933594 63.441406 55.335938 62.25 54.753906 C 61.054688 54.167969 59.914062 53.617188 59.449219 53.445312 C 59.066406 53.304688 58.679688 53.164062 58.230469 53.214844 C 57.78125 53.269531 57.351562 53.570312 57.035156 54.050781 C 56.542969 54.792969 54.964844 56.6875 54.5 57.222656 L 54.5 57.226562 C 54.308594 57.445312 54.195312 57.5 54.066406 57.519531 C 53.933594 57.535156 53.707031 57.492188 53.34375 57.3125 L 53.347656 57.316406 C 52.875 57.074219 52.070312 56.777344 50.957031 56.175781 C 49.839844 55.574219 48.449219 54.679688 46.929688 53.308594 C 44.585938 51.1875 42.96875 48.539062 42.507812 47.734375 C 42.324219 47.414062 42.34375 47.292969 42.390625 47.164062 C 42.4375 47.03125 42.582031 46.859375 42.78125 46.660156 L 42.785156 46.652344 C 43.199219 46.238281 43.640625 45.648438 44.035156 45.183594 L 44.035156 45.179688 C 44.476562 44.652344 44.640625 44.25 44.910156 43.714844 L 44.910156 43.710938 C 45.257812 43.003906 45.074219 42.304688 44.84375 41.832031 C 44.820312 41.78125 44.671875 41.425781 44.488281 40.964844 C 44.300781 40.5 44.058594 39.902344 43.804688 39.265625 C 43.292969 37.996094 42.722656 36.578125 42.355469 35.746094 C 42.023438 35 41.648438 34.546875 41.222656 34.296875 C 40.796875 34.050781 40.378906 34.039062 40.085938 34.027344 L 40.082031 34.027344 C 39.59375 34.007812 39.046875 34.007812 38.507812 34.007812 Z M 38.507812 35.007812 C 39.046875 35.007812 39.582031 35.007812 40.042969 35.027344 L 40.046875 35.027344 C 40.335938 35.039062 40.523438 35.050781 40.71875 35.164062 C 40.910156 35.273438 41.160156 35.519531 41.441406 36.152344 C 41.792969 36.945312 42.367188 38.371094 42.878906 39.640625 C 43.132812 40.277344 43.371094 40.871094 43.558594 41.339844 C 43.746094 41.804688 43.867188 42.109375 43.945312 42.269531 L 43.945312 42.273438 C 44.117188 42.625 44.199219 42.886719 44.011719 43.277344 C 43.730469 43.835938 43.628906 44.109375 43.269531 44.542969 L 43.273438 44.539062 C 42.847656 45.035156 42.394531 45.632812 42.078125 45.949219 L 42.074219 45.953125 C 41.867188 46.164062 41.597656 46.421875 41.453125 46.820312 C 41.304688 47.21875 41.351562 47.734375 41.644531 48.234375 C 42.132812 49.085938 43.78125 51.808594 46.261719 54.050781 C 47.84375 55.480469 49.308594 56.421875 50.480469 57.054688 C 51.648438 57.6875 52.554688 58.035156 52.894531 58.207031 L 52.898438 58.210938 C 53.347656 58.433594 53.761719 58.5625 54.1875 58.511719 C 54.609375 58.457031 54.96875 58.207031 55.253906 57.878906 C 55.742188 57.316406 57.277344 55.5 57.871094 54.605469 C 58.089844 54.269531 58.203125 54.226562 58.347656 54.210938 C 58.488281 54.191406 58.746094 54.253906 59.105469 54.386719 C 59.386719 54.492188 60.621094 55.070312 61.808594 55.652344 C 63 56.230469 64.199219 56.832031 64.597656 57.035156 L 64.601562 57.035156 C 65.019531 57.246094 65.359375 57.402344 65.59375 57.535156 C 65.824219 57.664062 65.925781 57.761719 65.953125 57.804688 C 65.914062 57.738281 65.976562 57.878906 65.992188 58.078125 C 66.003906 58.273438 66.003906 58.546875 65.976562 58.875 C 65.917969 59.523438 65.757812 60.378906 65.4375 61.292969 C 65.167969 62.058594 64.246094 62.980469 63.199219 63.667969 C 62.152344 64.351562 60.957031 64.820312 60.378906 64.875 C 59.589844 64.945312 58.96875 65.105469 57.640625 64.925781 C 56.308594 64.742188 54.277344 64.210938 50.871094 62.851562 C 46.851562 61.242188 43.535156 58.328125 41.179688 55.738281 C 40.003906 54.445312 39.066406 53.234375 38.398438 52.3125 C 38.066406 51.851562 37.800781 51.464844 37.605469 51.175781 C 37.40625 50.886719 37.300781 50.714844 37.214844 50.601562 C 36.796875 50.027344 34 46.195312 34 42.398438 C 34 38.519531 35.925781 36.738281 36.71875 35.875 L 36.71875 35.871094 C 37.355469 35.160156 38.097656 35.007812 38.507812 35.007812 Z M 38.507812 35.007812 "/>
</g>
</svg>
