<svg version="1.1" id="Layer_1" xmlns="http://www.w3.org/2000/svg" xmlns:xlink="http://www.w3.org/1999/xlink" x="0" y="0" viewBox="0 0 380 298.5" style="enable-background:new 0 0 380 298.5" xml:space="preserve"><style>.st3{fill:#52d1bd}.st4{opacity:.2}.st6{fill:#4076a3}.st7{fill:#193773}.st8{fill:#fff}.st9{fill:#92afcc}.st10{fill:#e2e2e2}.st11{fill:#fe5d77}.st15{fill:none;stroke:#000;stroke-width:5}.st16{fill:#fff;stroke:#000}.st17{fill:#072542}.st19{fill:#ecf3fe}.st20{fill:#193773;stroke:#000}.st21{fill:#9fb8d6}.st32{fill:#dae1e5}</style><defs><path id="SVGID_1_" d="M6 3.7h368v291.2H6z"/></defs><clipPath id="SVGID_00000039120621871723505600000016883907917548984960_"><use xlink:href="#SVGID_1_" style="overflow:visible"/></clipPath><g id="Mask_Group_957" style="clip-path:url(#SVGID_00000039120621871723505600000016883907917548984960_)"><g transform="translate(0 .001)" id="Group_956"><defs><path id="SVGID_00000059270748658738036910000005645838316550589841_" d="M6 3.7h368v291.2H6z"/></defs><clipPath id="SVGID_00000139977817501747892800000008796457233303044538_"><use xlink:href="#SVGID_00000059270748658738036910000005645838316550589841_" style="overflow:visible"/></clipPath><g id="Group_955" style="clip-path:url(#SVGID_00000139977817501747892800000008796457233303044538_)"><path id="Path_489" d="M100.4 279.9c2.4 1.7 4.8 3.4 7.2 5h183.2c2.2-1.8 4.4-3.7 6.6-5.6C341 239 358.9 163.8 334 133.7c-18.2-22-49.6-3.7-81.4-34.6-28.2-27.4-22.1-53.4-42.9-64.1C164.3 11.6 42.3 65.4 34.6 156.8c-5.8 68.9 57.7 117.1 65.8 123.1" style="opacity:.158;fill:#dae1e5;enable-background:new"/><path id="Path_490" class="st3" d="M59.7 86.2c-.5 0-.9-.4-.9-.9 0-.3.2-.6.4-.8.6-.4 1.3-.8 1.9-1.2.4-.3 1-.1 1.2.3.3.4.1 1-.3 1.2-.6.4-1.3.8-1.9 1.2-.1.1-.2.2-.4.2"/><path id="Path_491" d="M94.2 196.5h-1.8c-.5 0-.9-.4-.9-.9s.4-.9.9-.9h4.4c.5 0 .9.4.9.9s-.4.9-.9.9c-.8-.1-1.7 0-2.6 0m-6.2-.4c-.1 0-.1 0 0 0-1.6-.2-3.1-.4-4.6-.6-.5-.1-.8-.6-.7-1 .1-.5.6-.8 1-.7 1.4.3 2.9.5 4.3.6.5 0 .8.5.8 1 0 .4-.4.7-.8.7m13.3-.1c-.5 0-.9-.4-.9-.9s.3-.8.8-.9c1.5-.2 2.9-.4 4.3-.7.5-.1 1 .2 1.1.7.1.5-.2 1-.7 1.1-1.5.3-3 .5-4.5.7h-.1m-22.1-1.5H79c-1.5-.4-2.9-.8-4.3-1.3-.5-.2-.7-.7-.5-1.1.2-.5.7-.7 1.1-.5 1.4.5 2.8.9 4.2 1.3.5.1.8.6.6 1.1-.1.3-.5.5-.9.5m30.8-.2c-.5 0-.9-.4-.9-.9 0-.4.3-.7.6-.9 1.4-.4 2.7-.8 4-1.3l.2-.1c.5-.2 1 .1 1.2.5.2.5-.1 1-.5 1.2l-.2.1c-1.3.5-2.7 1-4.1 1.4h-.3m-39.2-2.8c-.1 0-.3 0-.4-.1-1.4-.6-2.7-1.4-4-2.1-.4-.3-.6-.8-.3-1.2.3-.4.8-.6 1.2-.3 1.2.7 2.5 1.4 3.8 2.1.4.2.6.7.4 1.2 0 .2-.3.4-.7.4m47.6-.4c-.5 0-.9-.4-.9-.9 0-.3.2-.6.5-.8 1.3-.6 2.6-1.4 3.8-2.1.4-.3 1-.1 1.2.3.3.4.1 1-.3 1.2-1.3.8-2.6 1.5-4 2.2-.1.1-.2.1-.3.1m-55.2-4.2c-.2 0-.4-.1-.5-.2-1.2-.9-2.4-1.9-3.4-3-.3-.4-.3-.9 0-1.3.4-.3.9-.3 1.3 0 1 1 2.1 2 3.3 2.9.4.3.5.9.2 1.3-.3.2-.6.3-.9.3m62.7-.5c-.5 0-.9-.4-.9-.9 0-.3.1-.5.4-.7 1.2-.9 2.3-1.8 3.4-2.8.4-.3.9-.3 1.3.1.3.4.3.9-.1 1.2-1.1 1-2.3 2-3.5 2.9-.2.2-.4.2-.6.2M57 180.6c-.3 0-.6-.1-.7-.4-.9-1.2-1.7-2.5-2.4-3.9-.2-.4-.1-1 .4-1.2.4-.2 1-.1 1.2.4.7 1.3 1.4 2.5 2.3 3.7.3.4.2 1-.2 1.2-.2.1-.4.2-.6.2m75.5-.1c-.5 0-.9-.4-.9-.9 0-.2.1-.4.2-.6 1-1.1 1.9-2.2 2.9-3.3.3-.4.9-.5 1.3-.1s.5.9.1 1.3c-.9 1.2-1.9 2.3-2.9 3.4-.2.1-.4.2-.7.2m-64.7-6.4c-1.6-.1-3.1-.3-4.6-.6-.5-.1-.8-.6-.7-1 .1-.5.6-.8 1-.7 1.4.3 2.9.4 4.3.5.5 0 .9.4.9.9s-.4.9-.9.9m4.4-.1c-.5 0-.9-.4-.9-.9s.3-.9.8-.9c1.4-.1 2.8-.4 4.2-.8.5-.1 1 .1 1.1.6.1.5-.1 1-.6 1.1-1.4.4-2.9.7-4.6.9.1 0 .1 0 0 0m65.9-.5c-.5 0-.9-.4-.9-.9 0-.2.1-.4.2-.5.8-1.2 1.6-2.4 2.3-3.7.2-.4.8-.6 1.2-.3.4.2.6.8.3 1.2-.8 1.3-1.6 2.6-2.4 3.8-.2.2-.4.4-.7.4m-85.2-.8c-.4 0-.7-.2-.8-.6-.4-1.2-.8-2.5-1.1-3.8-.1 0-.2-.1-.3-.1-1.2-.9-2.4-1.8-3.6-2.8-.4-.3-.4-.9-.1-1.3s.9-.4 1.3-.1c1 .9 2.2 1.8 3.3 2.6.5-.1.9.2 1 .7.3 1.4.7 2.8 1.2 4.2.2.5-.1 1-.6 1.1-.1.1-.2.1-.3.1m6.2-.3h-.3c-1.4-.5-2.9-1.1-4.2-1.8-.4-.2-.6-.8-.4-1.2.2-.4.8-.6 1.2-.4 1.3.7 2.6 1.2 4 1.7.5.2.7.7.6 1.1-.2.3-.6.6-.9.6m21.6-.9c-.5 0-.9-.4-.9-.9 0-.3.2-.6.5-.8 1.2-.7 2.3-1.4 3.4-2.4l.1-.1c.4-.3.9-.3 1.3.1.3.4.3.9-.1 1.3l-.1.1c-1.1 1-2.4 1.9-3.7 2.6-.2 0-.3.1-.5.1m61.8-5.7c-.5 0-.9-.4-.9-.9 0-.1 0-.3.1-.4.6-1.3 1.3-2.6 1.8-4 .2-.5.7-.7 1.2-.5.5.2.7.7.5 1.2-.6 1.4-1.2 2.8-1.9 4.1-.1.3-.4.5-.8.5m-55.1-.2c-.5 0-.9-.4-.9-.9 0-.2.1-.4.2-.5.8-1.2 1.6-2.4 2.2-3.7.2-.4.8-.6 1.2-.4.4.2.6.8.4 1.2-.7 1.4-1.5 2.7-2.4 3.9-.2.3-.5.4-.7.4M51 164c-.5 0-.8-.4-.9-.8-.1-1.2-.2-2.3-.2-3.5v-1.1c0-.5.4-.9.9-.9s.9.4.9.9v1c0 1.1.1 2.2.2 3.3 0 .6-.3 1.1-.9 1.1.1 0 0 0 0 0m-6.5-1.6c-.3 0-.5-.1-.7-.3-1-1.1-2-2.3-2.9-3.5-.3-.4-.2-1 .2-1.2.4-.3 1-.2 1.2.2.9 1.2 1.8 2.3 2.8 3.4.3.4.3.9-.1 1.3-.1 0-.3.1-.5.1m46.8-4.7c-.5 0-.9-.4-.9-.9v-.2c.4-1.4.7-2.8.8-4.2 0-.5.5-.9 1-.8s.9.5.8 1c-.1 1.5-.4 3.1-.9 4.5-.1.3-.4.6-.8.6m54.7-.1c-.5 0-.9-.4-.9-.9 0-.1 0-.2.1-.3.5-1.4.9-2.8 1.3-4.2.1-.5.6-.7 1.1-.6s.7.6.6 1.1c-.4 1.4-.9 2.9-1.4 4.3-.1.3-.4.6-.8.6m-106.8-2.3c-.3 0-.6-.2-.8-.4-.8-1.3-1.5-2.6-2.2-4-.2-.4 0-1 .4-1.2.4-.2 1 0 1.2.4.6 1.3 1.3 2.6 2.1 3.8.3.4.1 1-.3 1.2-.1.1-.2.2-.4.2m12.1-.2h-.1c-.5-.1-.8-.5-.7-1 .2-1.5.6-3 1.1-4.5.2-.5.7-.7 1.1-.6.5.2.7.7.6 1.1-.4 1.4-.8 2.8-1 4.2-.2.5-.6.8-1 .8m40.7-6.3c-.4 0-.8-.3-.9-.8-.2-1.4-.6-2.8-1.1-4.1-.2-.5 0-1 .5-1.2.5-.2 1 0 1.2.5.6 1.4 1 3 1.2 4.5.1.5-.3.9-.8 1 0 .1-.1.1-.1.1m-56.7-1.5c-.4 0-.7-.2-.8-.6-.5-1.4-1-2.9-1.4-4.3-.1-.5.1-1 .6-1.1.5-.1 1 .1 1.1.6.4 1.4.9 2.8 1.4 4.2.2.5-.1 1-.5 1.2-.2-.1-.3 0-.4 0m18.8-.6c-.5 0-.9-.4-.9-.9 0-.2 0-.3.1-.4.7-1.4 1.6-2.6 2.6-3.8.3-.4.9-.4 1.3-.1.4.3.4.9.1 1.3-.9 1.1-1.7 2.3-2.4 3.5-.2.2-.5.4-.8.4m34.4-5.9c-.3 0-.5-.1-.7-.3-.9-1.1-2-2-3.2-2.7-.4-.3-.5-.8-.3-1.2.3-.4.8-.5 1.2-.3 1.3.8 2.5 1.9 3.6 3.1.3.4.3.9-.1 1.3-.1 0-.3.1-.5.1m-28.6-.8c-.5 0-.9-.4-.9-.9 0-.3.1-.6.4-.7 1.2-.9 2.6-1.7 4-2.3.4-.2 1 0 1.2.4.2.4 0 1-.4 1.2-1.3.6-2.5 1.3-3.7 2.2-.3.1-.4.1-.6.1m-27-1.3c-.4 0-.8-.3-.9-.7 0-.2-.1-.3-.1-.5-.2-1.3-.4-2.7-.5-4 0-.5.3-.9.8-1 .5 0 .9.3 1 .8.1 1.3.2 2.6.4 3.9 0 .2.1.3.1.5.1.5-.2.9-.7 1h-.1m35-2.5c-.5 0-.9-.4-.9-.9 0-.4.3-.8.7-.9 1.5-.4 3-.7 4.5-.9.5-.1.9.3 1 .8.1.5-.3.9-.8 1-1.4.2-2.8.4-4.2.8-.2.1-.2.1-.3.1m13.2-.2h-.3c-1.4-.4-2.8-.7-4.2-.8-.5 0-.9-.5-.8-1 0-.5.5-.9 1-.8 1.5.1 3.1.4 4.6.8.5.1.7.6.6 1.1-.2.5-.5.7-.9.7m-48.8-6.2c-.5 0-.9-.4-.9-.9.1-1.5.2-3 .4-4.5 0-.5.5-.9 1-.8.5 0 .9.5.8 1v.1c-.2 1.4-.3 2.9-.4 4.3 0 .4-.4.8-.9.8m1.3-8.8c-.5 0-.9-.4-.9-.9v-.2c.4-1.5.8-2.9 1.3-4.4.2-.5.7-.7 1.1-.6s.7.7.6 1.1c-.5 1.4-.9 2.8-1.2 4.2-.2.5-.5.8-.9.8m2.9-8.4c-.5 0-.9-.4-.9-.9 0-.1 0-.2.1-.4.6-1.4 1.3-2.7 2-4.1.2-.4.8-.6 1.2-.4.4.2.6.8.4 1.2-.7 1.3-1.4 2.6-1.9 3.9-.3.5-.6.7-.9.7m4.2-7.9c-.5 0-.9-.4-.9-.9 0-.2.1-.3.1-.5.8-1.2 1.7-2.5 2.6-3.7.3-.4.8-.5 1.2-.2s.5.8.2 1.2c0 0 0 .1-.1.1-.9 1.2-1.7 2.4-2.5 3.6 0 .3-.3.4-.6.4m5.4-7c-.5 0-.9-.4-.9-.9 0-.2.1-.4.2-.6 1-1.1 2-2.2 3.1-3.3.4-.3.9-.3 1.3 0 .3.4.3.9 0 1.3-1.1 1-2.1 2.1-3 3.2-.2.2-.4.3-.7.3m6.4-6.2c-.5 0-.9-.4-.9-.9 0-.3.1-.5.3-.7 1.1-1 2.3-1.9 3.5-2.8.4-.3 1-.2 1.2.2.3.4.2 1-.2 1.2-1.2.9-2.3 1.8-3.5 2.7 0 .2-.2.3-.4.3"/><path id="Path_492" class="st3" d="M148.4 149c-.5 0-.9-.4-.9-.9v-.2c.3-1.3.4-2.1.4-2.1.1-.5.6-.8 1-.7.5.1.8.5.7 1 0 .1-.1.9-.4 2.3 0 .3-.3.6-.8.6"/><g id="Group_942" transform="translate(31.96 59.392)" class="st4"><g id="Group_941"><defs><path id="SVGID_00000009579724241619499210000008441260420649014952_" d="M2.2-3.3h58.1v58.1H2.2z"/></defs><clipPath id="SVGID_00000109718422450872532330000011409279914600319373_"><use xlink:href="#SVGID_00000009579724241619499210000008441260420649014952_" style="overflow:visible"/></clipPath><g id="Group_940" style="clip-path:url(#SVGID_00000109718422450872532330000011409279914600319373_)"><path id="Path_493" class="st6" d="M59.5 18.7c3.9 15.6-5.6 31.3-21.2 35.2S7 48.3 3.1 32.7C-.8 17.2 8.7 1.4 24.3-2.5c15.6-3.8 31.4 5.7 35.2 21.2"/></g></g></g><path id="Path_494" class="st7" d="M94.5 74.9c3.9 15.6-5.6 31.3-21.2 35.2S42 104.5 38.1 88.9s5.6-31.3 21.2-35.2c15.6-3.9 31.4 5.6 35.2 21.2"/><path id="Path_495" class="st8" d="M79.1 79c1.3 0 2.3-1 2.3-2.3v-.1c0-1.3-1-2.3-2.3-2.3h-5.4l.5-5.4c.1-1.2-.7-2.2-1.9-2.3H72c-1.3 0-2.4 1-2.6 2.3l-.4 5.3h-5.1l.5-5.4c.1-1.2-.7-2.2-1.9-2.3h-.3c-1.3 0-2.4 1-2.6 2.3l-.5 5.4h-5.6c-1.3 0-2.3 1-2.3 2.3v.1c0 1.3 1 2.3 2.3 2.3h5.1l-.5 5.1h-4.6c-1.3 0-2.3 1-2.3 2.3v.1c0 1.3 1 2.3 2.3 2.3h4.1l-.6 6c-.1 1.2.7 2.2 1.9 2.3h.3c1.3 0 2.4-1 2.6-2.3l.6-6h5.1l-.6 6c-.1 1.2.7 2.2 1.9 2.3h.3c1.3 0 2.4-1 2.6-2.3l.6-6h6.8c1.3 0 2.3-1 2.3-2.3v-.1c0-1.3-1-2.3-2.3-2.3h-6.3l.5-5.1 5.8.1zM68 84.1h-5.1l.5-5.1h5.1l-.5 5.1z"/><path id="Path_497" class="st9" d="M96.7 283.6c-.6 1.3-.6 2.8 0 4.1H98c.1 0 .2.1.2.2v.6c0 .1-.1.2-.2.2H71.6c-1.1 0-2-.9-2-2v-2.3c0-1.1.9-2 2-2H98c.1 0 .2.1.2.2v.6c0 .1-.1.2-.2.2l-1.3.2z"/><path id="Path_498" class="st10" d="M96.7 287.7H72c-.6 0-1-.5-1-1v-2.1c0-.6.5-1 1-1h24.7c-.1.2-.2.4-.2.6-.4 1.2-.3 2.5.2 3.5"/><path id="Path_499" class="st8" d="M96.7 287.7H71.8c-.1-.1-.1-.3-.1-.4v-2.1c0-.6.5-1 1-1h23.8c-.4 1.2-.3 2.4.2 3.5"/><path id="Path_500" class="st9" d="M93.8 264.6c-.6 1.3-.6 2.8 0 4.1h1.3c.1 0 .2.1.2.2v.7c0 .1-.1.2-.2.2H68.7c-1.1 0-2-.9-2-2v-2.3c0-1.1.9-2 2-2h26.4c.1 0 .2.1.2.2v.6c0 .1-.1.2-.2.2l-1.3.1z"/><path id="Path_501" class="st10" d="M93.8 268.7H69.1c-.6 0-1-.5-1-1v-2.1c0-.6.5-1 1-1h24.7c-.1.2-.2.4-.2.6-.4 1.1-.3 2.4.2 3.5"/><path id="Path_502" class="st8" d="M93.8 268.7H68.9c-.1-.1-.1-.3-.1-.4v-2.1c0-.6.5-1 1-1h23.8c-.4 1.1-.3 2.4.2 3.5"/><path id="Path_503" class="st11" d="M95.7 270.9c-.6 1.3-.6 2.8 0 4.1H97c.1 0 .2.1.2.2v.6c0 .1-.1.2-.2.2H70.5c-1.1 0-2-.9-2-2v-2.3c0-1.1.9-2 2-2h26.4c.1 0 .2.1.2.2v.6c0 .1-.1.2-.2.2l-1.2.2z"/><path id="Path_504" class="st10" d="M95.7 275H70.9c-.6 0-1-.5-1-1v-2.1c0-.6.5-1 1-1h24.7c-.1.2-.2.4-.2.6-.3 1.2-.3 2.4.3 3.5"/><path id="Path_505" class="st8" d="M95.7 275h-25c-.1-.1-.1-.3-.1-.4v-2.1c0-.6.5-1 1-1h23.8c-.4 1.2-.3 2.4.3 3.5"/><path id="Path_506" d="M93.6 277.3c-.6 1.3-.6 2.8 0 4.1h1.3c.1 0 .2.1.2.2v.6c0 .1-.1.2-.2.2H68.4c-1.1 0-2-.9-2-2v-2.3c0-1.1.9-2 2-2h26.4c.1 0 .2.1.2.2v.6c0 .1-.1.2-.2.2l-1.2.2z" style="fill:#b7cae5"/><path id="Path_507" class="st10" d="M93.6 281.4H68.8c-.6 0-1-.5-1-1v-2.1c0-.6.5-1 1-1h24.7c-.1.2-.2.4-.2.6-.4 1.1-.3 2.4.3 3.5"/><path id="Path_508" class="st8" d="M93.6 281.4h-25c-.1-.1-.1-.3-.1-.4v-2.1c0-.6.5-1 1-1h23.8c-.4 1.1-.3 2.4.3 3.5"/><g id="Group_945" transform="translate(96.836 80.205)" class="st4"><g id="Group_944"><defs><path id="SVGID_00000035512852686172780670000014778703561594916507_" d="M-5.4-5.8h180.9v202.5H-5.4z"/></defs><clipPath id="SVGID_00000168797771888157175510000008354854592196634556_"><use xlink:href="#SVGID_00000035512852686172780670000014778703561594916507_" style="overflow:visible"/></clipPath><g id="Group_943" style="clip-path:url(#SVGID_00000168797771888157175510000008354854592196634556_)"><path id="Path_509" class="st6" d="M155.9 147c13.5-17.8 20.4-39.7 19.5-61.9C173.7 36 135.3-4 88.2-5.7 36.1-7.6-6.5 36.5-5.4 90.6c1.1 50 40.2 90.9 88.2 92.1 10.6.3 21.1-1.4 31.1-4.9l44.2 18.5c3.9 1.6 8-2 7.1-6.3-2.4-11-6.3-28.8-9.3-43"/></g></g></g><path id="Path_510" d="M258.3 221c13.4-16.8 20.3-37.9 19.5-59.4-1.7-47.2-40.1-85.5-87.2-87.1-49.9-1.8-91.7 37.2-93.5 87.1-.1 1.8-.1 3.6 0 5.4 1.1 48 40.2 87.2 88.2 88.4 10.6.3 21.1-1.3 31.1-4.7l44.2 17.8c2.7 1.1 5.7-.2 6.8-2.9.4-1 .5-2.1.2-3.1-2.4-10.8-6.3-27.9-9.3-41.5" style="fill:#fcfcfc;stroke:#000;stroke-width:2"/><g id="Group_967" transform="translate(0 6.945)"><path id="Line_21" class="st15" d="M129.1 128.1H190"/><path id="Line_24" class="st15" d="M129.1 165.2h60"/><path id="Line_26" class="st15" d="M129.1 184.6H175"/><path id="Line_27" class="st15" d="M181.2 184.6h45.9"/><path id="Line_25" class="st15" d="M193.5 165.2h60"/><path id="Line_22" class="st15" d="M129.1 148.2H168"/><path id="Line_23" class="st15" d="M173.4 148.2h71.3"/></g><path id="Path_527" class="st16" d="M149.7 220.5c-1.3 3.1-26-1.3-31.4 0-2.6.5-5.3-.1-7.5-1.7-.4-.3-.9-.6-1.2-1-2.6-2.4-3.8-5.9-3.1-9.4 1.3-8.3 6.7-25.1 16.4-27.8 0 0 18.8-3.6 20.6 15.7 1.8 19.2 7.6 21 6.2 24.2"/><path id="Path_533" class="st17" d="M97.9 275.1c.1 5.9 12.7 10.5 28.3 10.3 15.6-.2 28.1-5.1 28.1-10.9-.1-5.9-12.7-10.5-28.3-10.3-15.6.1-28.2 5-28.1 10.9"/><path id="Path_534" class="st17" d="M133.2 274.2s4.9-12.6 9.6-12.5c4.7.1 14 .2 13.7 2.1-.3 1.9-12.5 9.2-13.7 9.6-1.1.4-9.6.8-9.6.8"/><path id="Path_535" d="M105.6 269.3c.1-.8-.3-11.2 12.5-10.4s29.8 1.1 29.2 5.6c-.5 4.5-11 13.4-16.8 13.2-5.9-.1-25-5.9-24.9-8.4" style="fill:#0e2851"/><path id="Path_536" d="M112.5 261.4c-1 .4-2 .7-3 .9-3.4.6-7 0-10-1.8 0-.4-.1-.9 0-1.3.1-1.8.6-4.8 3.8-5.3 4.4-.6 9.2 7.5 9.2 7.5"/><path id="Path_537" d="M151.7 262.1s-2.3 1.7-7.6 2.3l-.5.1c-5.7.6 2.1-9.6 2.1-9.6s6.2-1.7 6.9 0c.2.4.3.9.3 1.3.2 2.1-.2 5-1.2 5.9"/><path id="Path_538" class="st16" d="M155.5 259.6s-2.2 2.1-3.9 2.5c.2-.4.3-.9.4-1.3.4-1.8.5-4.8-3.3-5.5-.3-.1-.7-.1-1-.1 0 0 1.1-.8.4-3.3-.6-2.4-4.3-14.2-4.4-14.5.3 2.9-.5 5.8-2.2 8.1 0 0 3.4 16.9-.2 17.3-9.1 1.3-18.4 1.3-27.6 0-.9-.1-1.8-.3-2.7-.4.2-2 .6-4.1 1.1-6.1.7-2.7 1.5-6.9-1.3-16.1 0 0-4.1 9-4.4 15.6 0 0-4.7-1.6-6.8 4.7 0 0-3.9-.9-2-7.7s3.4-10.9 3.3-15.7c0-4.7 2.5-10.9 4.1-12.1 1.6-1.2 4.1-3.9 9.2-3.7 5.1.2 24.2-1.6 24.2-1.6s6.9-.5 9 2.3c2.8 3.7 4.7 8 5.6 12.6.8 3.7 2.9 10.3 3.8 15.9.6 4.1.5 7.6-1.3 9.1"/><path id="Path_539" d="M139.6 219.6s-.9 8.7-10 9.8c-9.1 1.1-14.4-4.2-15.3-8.2 0 0 5.7-.1 9.3-8.3.2-.5.5-1.1.7-1.7 3.5-10 7.1-.5 7.1-.5.4 1.6 1.1 3.1 2.1 4.4 1.2 2.3 3.5 3.9 6.1 4.5"/><path id="Path_540" d="M133.3 215.1c-3.4.2-6.8-.5-9.8-2.2.2-.5.5-1.1.7-1.7 3.5-10 7.1-.5 7.1-.5.4 1.6 1.1 3.1 2 4.4"/><path id="Path_541" d="M138.5 200.7c.1 4.4-2.3 8.5-6.3 10.6-1.3.6-2.6 1-4.1 1h-.3c-5.9 0-10.6-5.2-10.6-11.6 0-6.4 4.7-11.6 10.6-11.6 2.8 0 5.5 1.2 7.4 3.3 2.2 2.3 3.3 5.2 3.3 8.3"/><path id="Path_543" class="st8" d="M116.5 194.2s15.1 6.3 22.7 2.2-8.4-14.3-14.6-9.7c-6.3 4.5-8.1 7.5-8.1 7.5"/><path id="Path_544" class="st19" d="M135.3 282.8c0 1.1 1 1.6 2.1 2 .2.1.4.1.6.2.4.1.9.3 1.3.4 1.2.4 2.2 1.1 3.2 1.9.7.2 1.4.3 2.1.4.8.1 1.6 0 2.4-.4.8-.5 1.6-4.3 2.1-7.1.2-1 .3-2.1.4-3.1 0 0-.9-.1-2.2-.1-.6 0-1.3-.1-2.1-.1-1.6-.1-3.4-.1-4.9-.1-1 0-1.9.1-2.9.3-.5.2-1 .6-1.2 1.2-.7 1.3-1 2.9-.9 4.5"/><path id="Path_547" class="st20" d="M104.1 261.6s-15.8-4.1-18.3.4c-2.6 4.5-1.3 9.1 2.8 12 4.1 2.9 8.1 9.2 44.1 7.4l1.4-6.1s-18.1-4.4-26.3-8.4v-4c0 .1-.8-.6-3.7-1.3"/><path id="Path_548" d="m123.7 278.8-13 1.8s.4 7.3.6 7.3 17.2-3.6 17.2-3.6l-4.8-5.5z"/><path id="Path_549" class="st21" d="M144.6 287.6c.8.1 1.6 0 2.4-.4 1.3-.8 2.6-10 2.5-10.3 0 0-.9-.1-2.2-.1-.7 3.7-1.6 7.3-2.7 10.8"/><path id="Path_550" class="st19" d="M106.7 289.4c.1.2 1.2.3 2.1.1.5-.1 1-.3 1.5-.6.8-.8 5.6-1.3 5.6-1.3s.2-.1.5-.3c1-.7 3.3-2.6 2.6-5-.9-3.2-4.9-3.1-5.1-3.1-1.1-.2-2.1-.6-3.1-1.1-.3-.1-.6-.2-.9-.2h-1.4c-.6 0-1.3.2-1.8.6-.4.7-.1 10.6 0 10.9"/><g id="Group_951" transform="translate(146.537 309.449)" style="opacity:.5"><g id="Group_950"><defs><path id="SVGID_00000029728965469923305350000002660185668094572957_" d="M-11.2-32.7H2.9v8.3h-14.1z"/></defs><clipPath id="SVGID_00000083077868968932359020000004261935167571592628_"><use xlink:href="#SVGID_00000029728965469923305350000002660185668094572957_" style="overflow:visible"/></clipPath><g id="Group_949" style="clip-path:url(#SVGID_00000083077868968932359020000004261935167571592628_)"><path id="Path_551" d="M-11.2-26.6c0 1.1 1 1.6 2.1 2 .2.1.4.1.6.2l11-4.9c.2-1 .3-2.1.4-3.1 0 0-.9-.1-2.2-.1-.6 0-1.3-.1-2.1-.1-1.6-.1-3.4-.1-4.9-.1-1 0-1.9.1-2.9.3-.5.2-1 .6-1.2 1.2-.6 1.4-.9 3-.8 4.6" style="fill:#587189"/></g></g></g><path id="Path_552" class="st20" d="M142.1 262.7c.3-.1 16.9-7 21.9-6.9s9.6 9.8 4.1 14.2-23.8 11.1-43.9 17.4c0 0-3.6-4.1-4.6-8.8 0 0 19.4-8.3 23.2-10.7l-.7-5.2z"/><path id="Path_553" d="M106.7 289.4c.1.2 1.2.3 2.1.1.5-.1 1-.3 1.5-.6.8-.8 5.6-1.3 5.6-1.3s.2-.1.5-.3c-7.3-.2-6.8-7.1-6.4-9.5h-1.4c-.6 0-1.3.2-1.8.6-.5.8-.2 10.7-.1 11" style="fill:#d7e3f4"/><path id="Path_554" class="st21" d="M106.7 289.4c.1.2 1.2.3 2.1.1-.2-1.1-.5-2.6-.7-4.2-.2-2.5 0-5 .4-7.5-.6 0-1.3.2-1.8.6-.4.8-.1 10.7 0 11"/><path id="Path_555" d="M148.9 245.8v19.9c0 1.5-1.2 2.7-2.7 2.7H108c-1.5 0-2.7-1.2-2.7-2.7v-19.9c0-1.5 1.2-2.7 2.7-2.7h38.2c1.5 0 2.6 1.2 2.7 2.7" style="fill:#869fb7"/><path id="Path_556" d="M110.8 247.5c0 .9-.7 1.6-1.6 1.6s-1.6-.7-1.6-1.6c0-.9.7-1.6 1.6-1.6s1.6.7 1.6 1.6" style="fill:#495a70"/><path id="Path_557" d="M148.9 245.8v19.9c0 1.5-1.2 2.7-2.7 2.7H108c-.7 0-1.4-.3-1.9-.8 28.9-2.8 38.7-15.3 41.9-23.8.6.6.9 1.3.9 2" style="fill:#728da3"/><path id="Path_558" class="st11" d="M83.4 251.9v.4l-.2 2.3-.1 1.6-.3 3.2-.4 4.1h-6.2l-.4-4.1-.4-4.8-.2-2.3v-.4h8.2z"/><path id="Path_559" class="st7" d="m83.4 254.6-.2 1.7-.3 3.1h-7.4l-.4-4.8h8.3z"/><path id="Path_560" d="M83.1 250.8v-.1c0-.6-.5-1.1-1.1-1.1h-5.5c-.6 0-1.1.5-1.1 1.1v.1h-.8v1.5h9.2v-1.5h-.7z" style="fill:#1f3a6f"/><g id="Group_954" transform="translate(78.425 281.789)" class="st4"><g id="Group_953"><defs><path id="SVGID_00000140707531391247869160000003384268576076925882_" d="M-3.2-29.5H5v4h-8.2z"/></defs><clipPath id="SVGID_00000072999902637596423730000017896135279199329679_"><use xlink:href="#SVGID_00000140707531391247869160000003384268576076925882_" style="overflow:visible"/></clipPath><g id="Group_952" style="clip-path:url(#SVGID_00000072999902637596423730000017896135279199329679_)"><path id="Path_561" d="m5-27.2-.2 1.7-.2-.1-3.2-1.6c-2.3-1.1-4.6-2.3-4.6-2.3h8.1l-.2 2.3H5z" style="fill:#a8a8a8"/></g></g></g><path id="Path_562" class="st7" d="M196 53.9c0 4.7-3.8 8.5-8.5 8.5s-8.5-3.8-8.5-8.5 3.8-8.5 8.5-8.5c4.6-.1 8.5 3.7 8.5 8.5"/><path id="Path_563" class="st7" d="M311.4 219.6c0 4.1-3.3 7.4-7.4 7.4-4.1 0-7.4-3.3-7.4-7.4 0-4.1 3.3-7.4 7.4-7.4 4.1.1 7.4 3.4 7.4 7.4"/><path id="Path_564" class="st32" d="M340.1 251.2c0 2-1.6 3.6-3.6 3.6s-3.6-1.6-3.6-3.6 1.6-3.6 3.6-3.6c1.9 0 3.6 1.6 3.6 3.6"/><path id="Path_565" class="st32" d="M239.5 8.9c0 2.9-2.4 5.3-5.3 5.3s-5.3-2.4-5.3-5.3 2.4-5.3 5.3-5.3c3 .1 5.3 2.4 5.3 5.3"/><path id="Path_566" class="st7" d="M374 117.4c0 4.5-3.6 8.1-8.1 8.1s-8.1-3.6-8.1-8.1 3.6-8.1 8.1-8.1 8.1 3.6 8.1 8.1"/><path id="Path_567" class="st32" d="M91.5 24.9c0 4.5-3.6 8.1-8.1 8.1s-8.1-3.6-8.1-8.1 3.6-8.1 8.1-8.1 8.1 3.6 8.1 8.1"/><path id="Path_568" class="st32" d="M17.5 148c0 3.2-2.6 5.8-5.8 5.8S6 151.2 6 148c0-3.2 2.6-5.8 5.8-5.8 3.1 0 5.7 2.6 5.7 5.8"/><path id="Path_572" d="M24.8 289.6h319.9" style="fill:none;stroke:#231f20;stroke-width:2"/><g id="Group_968"><g id="Group_948" transform="translate(226.08 59.392)" class="st4"><g id="Group_947"><defs><path id="SVGID_00000129915614223087846800000000211919612828276404_" d="M-20.6-3.3H99.5v131.4H-20.6z"/></defs><clipPath id="SVGID_00000061431632081988939810000016051116962995818420_"><use xlink:href="#SVGID_00000129915614223087846800000000211919612828276404_" style="overflow:visible"/></clipPath><g id="Group_946" style="clip-path:url(#SVGID_00000061431632081988939810000016051116962995818420_)"><path id="Path_518" class="st6" d="M37.4-3.3c-31.3 1.1-56.8 27-57.9 58.9-.5 14.5 4 28.7 13 40.2-2 9.2-4.6 20.8-6.2 27.9-.5 1.9.7 3.8 2.6 4.2.7.2 1.4.1 2.1-.1l29.4-12c6.6 2.3 13.6 3.4 20.7 3.2C73 118.2 99 91.7 99.7 59.2c.6-35.1-27.8-63.7-62.3-62.5"/></g></g></g><path id="Path_519" class="st11" d="M225.3 151.2c-20.6-26-16.2-63.7 9.8-84.3 26-20.6 63.7-16.2 84.3 9.8s16.2 63.7-9.8 84.3c-16 12.6-37.2 16.3-56.5 9.8l-29.4 11.8c-1.8.7-3.8-.1-4.5-1.9-.3-.7-.3-1.4-.2-2.1 1.7-7 4.3-18.4 6.3-27.4"/><path id="Path_569" class="st8" d="M283.5 118.2v.2c-4.5-2.2-4.9-2.5-5.5-1.7-.4.6-1.6 1.9-1.9 2.3-.3.4-.7.4-1.3.2-1.8-.7-3.4-1.7-4.9-3-1.3-1.2-2.4-2.6-3.4-4.2-.6-1 .7-1.2 1.8-3.3.2-.3.1-.7-.1-1.1-.2-.3-1.4-3.3-1.9-4.5-.5-1.2-1-1-1.4-1-1.2-.1-2-.1-2.8.7-3.3 3.6-2.4 7.3.3 11.3 5.5 7.2 8.4 8.5 13.8 10.3 1.2.4 2.5.5 3.8.3 1.2-.2 3.6-1.5 4.1-2.9.4-.9.5-1.9.4-2.9-.3-.3-.6-.5-1-.7z"/><path id="Path_570" class="st8" d="M289.6 96.3c-15.6-15.1-41.3-4.1-41.3 17.1 0 4.2 1.1 8.4 3.2 12l-3.4 12.5 12.8-3.3c16 8.7 35.8-2.8 35.8-21.2 0-6.4-2.6-12.6-7.1-17.1zm3 17c0 15.5-17 25.1-30.4 17.2l-.7-.4-7.6 2 2-7.4-.4-.8c-8.3-13.3 1.2-30.7 17.1-30.7 11 .1 20 9 20 20.1z"/></g></g></g></g></svg>